<svg xmlns="http://www.w3.org/2000/svg" width="243.043" height="83.544" viewBox="0 0 243.043 83.544">
  <g id="Logo_Flat" data-name="Logo Flat" transform="translate(-56.101 -68.298)">
    <path id="Trazado_1" data-name="Trazado 1" d="M188.054,124.736c3.473-9.4,17.284-46.788,18.111-49.065a4.86,4.86,0,0,0-3.023-6.305c-2.859-.9-5,.836-5.977,3.481l-15.6,42.248S166.1,72.933,165.586,71.853a4.63,4.63,0,0,0-6.5-2.11,4.372,4.372,0,0,0-2.293,3.132,6.127,6.127,0,0,0,.511,3.692c.836,2.274,16.7,45.248,17.779,48.168s4.587,3.35,6.486,3.35,5.407-.43,6.486-3.35" transform="translate(30.285 0.28)" fill="#dd0059"/>
    <path id="Trazado_2" data-name="Trazado 2" d="M156.358,95.751a20.525,20.525,0,0,0-3.7-9.069,20.288,20.288,0,0,0-4.031-4.147,19.734,19.734,0,0,0-2.41-1.589,19.216,19.216,0,0,0-6.406-2.22,19.686,19.686,0,0,0-6.056,0,19.217,19.217,0,0,0-6.405,2.22,19.635,19.635,0,0,0-2.41,1.589,20.15,20.15,0,0,0-2.16,1.924,20.58,20.58,0,0,0-5.571,11.3,21.322,21.322,0,0,0,0,6.233,20.542,20.542,0,0,0,5.571,11.29,20.006,20.006,0,0,0,2.16,1.923,19.806,19.806,0,0,0,2.41,1.592,19.3,19.3,0,0,0,18.864,0,20.1,20.1,0,0,0,4.57-3.515,20.514,20.514,0,0,0,4.911-8.344,20.755,20.755,0,0,0,.66-2.947,21.32,21.32,0,0,0,0-6.233M166.5,98.879c0,16.888-13.305,30.581-29.72,30.581s-29.72-13.692-29.72-30.581S120.369,68.3,136.782,68.3,166.5,81.99,166.5,98.879" transform="translate(15.341)" fill="#dd0059"/>
    <path id="Trazado_3" data-name="Trazado 3" d="M85.792,118.315l17.643-31.47v32.713a16.63,16.63,0,0,0,.479,5.557,4.914,4.914,0,0,0,9.278-.883,48.691,48.691,0,0,0,.163-5.64V78.184a25.551,25.551,0,0,0-.382-5.889,4.957,4.957,0,0,0-4.579-3.137,18.659,18.659,0,0,0-5.6.418c-2.037.908-2.625,2.669-3.58,4.371L84.743,99.762,70.271,73.949c-.954-1.7-1.543-3.463-3.58-4.371a18.659,18.659,0,0,0-5.6-.418,4.956,4.956,0,0,0-4.576,3.135,25.418,25.418,0,0,0-.383,5.889v40.409a48.4,48.4,0,0,0,.164,5.64,4.914,4.914,0,0,0,9.277.883,16.6,16.6,0,0,0,.479-5.557V86.848L83.7,118.318Z" transform="translate(0 0.271)" fill="#dd0059"/>
    <path id="Trazado_4" data-name="Trazado 4" d="M227.014,122.917V74.392a4.964,4.964,0,1,0-9.919-.149v48.534a4.964,4.964,0,1,0,9.919.139" transform="translate(48.461 0.287)" fill="#dd0059"/>
    <path id="Trazado_5" data-name="Trazado 5" d="M204.931,128.016c-3.075,0-4.96-2.494-4.96-5.5V74.233a4.96,4.96,0,1,1,9.917,0v48.285c0,3.009-1.887,5.5-4.959,5.5" transform="translate(43.308 0.291)" fill="#dd0059"/>
    <path id="Trazado_6" data-name="Trazado 6" d="M250.88,113.332a2.454,2.454,0,0,0-3.277,1.283,2.583,2.583,0,0,0,1.239,3.373,10.974,10.974,0,0,1,4.555,3.806,60.326,60.326,0,0,1-65.361.291,2.44,2.44,0,0,0-3.413.835,2.6,2.6,0,0,0,.808,3.512,65.169,65.169,0,0,0,69.956.1,11.466,11.466,0,0,1-.642,6.61,2.578,2.578,0,0,0,1.362,3.327,2.456,2.456,0,0,0,3.232-1.405,17.052,17.052,0,0,0-8.462-21.723" transform="translate(38.577 15.178)" fill="#dd0059"/>
  </g>
</svg>
